<svg width="191" height="63" viewBox="0 0 191 63" fill="none" xmlns="http://www.w3.org/2000/svg">
<path d="M0 0C8.38848 9.31748 20.9095 34.794 3.88583 62.16C15.7284 52.0606 31.5308 25.4895 0 0Z" fill="#5051F9"/>
<path d="M35.4087 8.6333C29.0451 18.6619 20.4542 42.5439 36.9997 57.8433C25.939 51.8573 10.136 33.6348 35.4087 8.6333Z" fill="#1DA7FF"/>
<path d="M57.9745 44.5801C55.8664 44.5801 53.8203 44.3205 51.8362 43.8012C49.8521 43.282 48.2401 42.5897 47 41.7243L49.4181 36.3095C50.5838 37.076 51.9354 37.6941 53.4731 38.1639C55.0108 38.6336 56.5236 38.8685 58.0117 38.8685C60.839 38.8685 62.2527 38.1639 62.2527 36.7545C62.2527 36.0128 61.8435 35.4688 61.025 35.1227C60.2314 34.7518 58.9417 34.3685 57.1561 33.9729C55.1968 33.5526 53.5599 33.1076 52.2454 32.6378C50.931 32.1433 49.8025 31.3644 48.8601 30.3012C47.9176 29.238 47.4464 27.804 47.4464 25.999C47.4464 24.4166 47.8804 22.9949 48.7485 21.7339C49.6165 20.4482 50.9062 19.4345 52.6175 18.6927C54.3535 17.951 56.474 17.5801 58.9789 17.5801C60.6902 17.5801 62.3767 17.7779 64.0384 18.1735C65.7 18.5444 67.1633 19.1007 68.4281 19.8424L66.1589 25.2944C63.6787 23.9592 61.273 23.2916 58.9417 23.2916C57.4785 23.2916 56.412 23.5141 55.7424 23.9592C55.0728 24.3795 54.7379 24.9358 54.7379 25.6282C54.7379 26.3205 55.1348 26.8397 55.9284 27.1858C56.722 27.532 57.9993 27.8905 59.7602 28.2614C61.7443 28.6817 63.3811 29.1391 64.6708 29.6337C65.9852 30.1034 67.1137 30.8699 68.0561 31.9331C69.0234 32.9716 69.507 34.3933 69.507 36.1982C69.507 37.7559 69.073 39.1652 68.2049 40.4262C67.3369 41.6872 66.0348 42.701 64.2988 43.4674C62.5627 44.2092 60.4546 44.5801 57.9745 44.5801Z" fill="#212121"/>
<path d="M93.8168 38.3864V44.0609H72.9095V18.0993H93.3332V23.7738H80.201V28.1501H91.7707V33.6391H80.201V38.3864H93.8168Z" fill="#212121"/>
<path d="M115.352 39.0169H104.34L102.294 44.0609H94.7794L106.275 18.0993H113.529L125.062 44.0609H117.398L115.352 39.0169ZM113.194 33.6021L109.846 25.2944L106.498 33.6021H113.194Z" fill="#212121"/>
<path d="M136.301 44.5801C134.193 44.5801 132.147 44.3205 130.163 43.8012C128.179 43.282 126.567 42.5897 125.327 41.7243L127.745 36.3095C128.911 37.076 130.262 37.6941 131.8 38.1639C133.338 38.6336 134.851 38.8685 136.339 38.8685C139.166 38.8685 140.58 38.1639 140.58 36.7545C140.58 36.0128 140.17 35.4688 139.352 35.1227C138.558 34.7518 137.269 34.3685 135.483 33.9729C133.524 33.5526 131.887 33.1076 130.572 32.6378C129.258 32.1433 128.129 31.3644 127.187 30.3012C126.245 29.238 125.773 27.804 125.773 25.999C125.773 24.4166 126.207 22.9949 127.075 21.7339C127.943 20.4482 129.233 19.4345 130.944 18.6927C132.68 17.951 134.801 17.5801 137.306 17.5801C139.017 17.5801 140.704 17.7779 142.365 18.1735C144.027 18.5444 145.49 19.1007 146.755 19.8424L144.486 25.2944C142.006 23.9592 139.6 23.2916 137.269 23.2916C135.805 23.2916 134.739 23.5141 134.069 23.9592C133.4 24.3795 133.065 24.9358 133.065 25.6282C133.065 26.3205 133.462 26.8397 134.255 27.1858C135.049 27.532 136.326 27.8905 138.087 28.2614C140.071 28.6817 141.708 29.1391 142.998 29.6337C144.312 30.1034 145.441 30.8699 146.383 31.9331C147.35 32.9716 147.834 34.3933 147.834 36.1982C147.834 37.7559 147.4 39.1652 146.532 40.4262C145.664 41.6872 144.362 42.701 142.626 43.4674C140.89 44.2092 138.782 44.5801 136.301 44.5801Z" fill="#212121"/>
<path d="M151.236 18.0993H158.602V44.0609H151.236V18.0993Z" fill="#212121"/>
<path d="M181.29 39.0169H170.279L168.233 44.0609H160.718L172.213 18.0993H179.467L191 44.0609H183.336L181.29 39.0169ZM179.133 33.6021L175.785 25.2944L172.436 33.6021H179.133Z" fill="#212121"/>
</svg>
